{"title":"Grand Masti 2013 1CD WebRip x264 MP3 [TMB] - Hindi","uid":9039439,"size":684986754,"categoryP":"video","categoryS":"movies","magnet":"?xt=urn:btih:ad437b2f3f50e75f3570d4bee90685a6cb15c4c8&amp;dn=Grand+Masti+2013+1CD+WebRip+x264+MP3+%5BTMB%5D+-+Hindi&amp;tr=udp%3A%2F%2Ftracker.openbittorrent.com%3A80&amp;tr=udp%3A%2F%2Fopen.demonii.com%3A1337&amp;tr=udp%3A%2F%2Ftracker.coppersurfer.tk%3A6969&amp;tr=udp%3A%2F%2Fexodus.desync.com%3A6969","seeders":1,"leechers":0,"uploader":"SJonam","files":2,"time":1381585654,"description":"TMB Exclusive Release...\n &lt;a href=&quot;\nhttp://t1.someimage.com/H31Lxdx.jpg&quot; rel=&quot;nofollow&quot; target=&quot;_NEW&quot;&gt;\nhttp://t1.someimage.com/H31Lxdx.jpg&lt;/a&gt; &lt;a href=&quot;\nhttp://t1.someimage.com/5SryBeE.jpg&quot; rel=&quot;nofollow&quot; target=&quot;_NEW&quot;&gt;\nhttp://t1.someimage.com/5SryBeE.jpg&lt;/a&gt; &lt;a href=&quot;\nhttp://t1.someimage.com/j4B2hA0.jpg&quot; rel=&quot;nofollow&quot; target=&quot;_NEW&quot;&gt;\nhttp://t1.someimage.com/j4B2hA0.jpg&lt;/a&gt; &lt;a href=&quot;\nhttp://t1.someimage.com/UZ6QZrS.jpg&quot; rel=&quot;nofollow&quot; target=&quot;_NEW&quot;&gt;\nhttp://t1.someimage.com/UZ6QZrS.jpg&lt;/a&gt; &lt;a href=&quot;\nhttp://t1.someimage.com/coVJPgF.jpg&quot; rel=&quot;nofollow&quot; target=&quot;_NEW&quot;&gt;\nhttp://t1.someimage.com/coVJPgF.jpg&lt;/a&gt; &lt;a href=&quot;\nhttp://t1.someimage.com/yx3ZCxH.jpg&quot; rel=&quot;nofollow&quot; target=&quot;_NEW&quot;&gt;\nhttp://t1.someimage.com/yx3ZCxH.jpg&lt;/a&gt; &lt;a href=&quot;\nhttp://t1.someimage.com/9cuj6Wb.jpg&quot; rel=&quot;nofollow&quot; target=&quot;_NEW&quot;&gt;\nhttp://t1.someimage.com/9cuj6Wb.jpg&lt;/a&gt; &lt;a href=&quot;\nhttp://t1.someimage.com/dn2XdYE.jpg&quot; rel=&quot;nofollow&quot; target=&quot;_NEW&quot;&gt;\nhttp://t1.someimage.com/dn2XdYE.jpg&lt;/a&gt;\n \n\nMedia Info - \nGeneral\nComplete name                  : Grand Masti 2013 WebRip x264 MP3 [TMB].avi\nFormat                         : AVI\nFormat/Info                    : Audio Video Interleave\nFile size                      : 645 MiB\nDuration                       : 2h 14mn\nOverall bit rate               : 670 Kbps\nWriting application            : Lavf54.63.104\n\nVideo\nFormat                         : AVC\nFormat/Info                    : Advanced Video Codec\nFormat profile                 : &lt;a class=&quot;__cf_email__&quot; href=&quot;/cdn-cgi/l/email-protection&quot; data-cfemail=&quot;7538141c1b3539465b45&quot;&gt;[email&amp;#160;protected]&lt;/a&gt;&lt;script cf-hash='f9e31' type=&quot;text/javascript&quot;&gt;\n/* &lt;![CDATA[ */!function(){try{var t=&quot;currentScript&quot;in document?document.currentScript:function(){for(var t=document.getElementsByTagName(&quot;script&quot;),e=t.length;e--;)if(t[e].getAttribute(&quot;cf-hash&quot;))return t[e]}();if(t&amp;&amp;t.previousSibling){var e,r,n,i,c=t.previousSibling,a=c.getAttribute(&quot;data-cfemail&quot;);if(a){for(e=&quot;&quot;,r=parseInt(a.substr(0,2),16),n=2;a.length-n;n+=2)i=parseInt(a.substr(n,2),16)^r,e+=String.fromCharCode(i);e=document.createTextNode(e),c.parentNode.replaceChild(e,c)}}}catch(u){}}();/* ]]&gt; */&lt;/script&gt;\nFormat settings, CABAC         : Yes\nFormat settings, ReFrames      : 1 frame\nCodec ID                       : H264\nDuration                       : 2h 14mn\nBit rate                       : 405 Kbps\nWidth                          : 852 pixels\nHeight                         : 364 pixels\nDisplay aspect ratio           : 2.35:1\nFrame rate mode                : Variable\nFrame rate                     : 25.000 fps\nColor space                    : YUV\nChroma subsampling             : 4:2:0\nBit depth                      : 8 bits\nScan type                      : Progressive\nBits/(Pixel*Frame)             : 0.052\nStream size                    : 386 MiB (60%)\nWriting library                : x264 core 129\n\nAudio\nFormat                         : MPEG Audio\nFormat version                 : Version 1\nFormat profile                 : Layer 3\nMode                           : Joint stereo\nMode extension                 : MS Stereo\nCodec ID                       : 55\nCodec ID/Hint                  : MP3\nDuration                       : 2h 14mn\nBit rate mode                  : Constant\nBit rate                       : 256 Kbps\nChannel count                  : 2 channels\nSampling rate                  : 48.0 KHz\nCompression mode               : Lossy\nStream size                    : 247 MiB (38%)\nAlignment                      : Aligned on interleaves\nInterleave, duration           : 24 ms (0.60 video frame)\n\n\nSample in Torrent...\n\nRipper : Manojvb\n\nSeeding will be very slow for next 6 hours ;)\n\n\nEnjoy this TMB Release...","torrent":{"xt":"urn:btih:ad437b2f3f50e75f3570d4bee90685a6cb15c4c8","amp;dn":"Grand+Masti+2013+1CD+WebRip+x264+MP3+%5BTMB%5D+-+Hindi","amp;tr":["udp%3A%2F%2Ftracker.openbittorrent.com%3A80","udp%3A%2F%2Fopen.demonii.com%3A1337","udp%3A%2F%2Ftracker.coppersurfer.tk%3A6969","udp%3A%2F%2Fexodus.desync.com%3A6969"],"infoHash":"ad437b2f3f50e75f3570d4bee90685a6cb15c4c8","infoHashBuffer":{"type":"Buffer","data":[173,67,123,47,63,80,231,95,53,112,212,190,233,6,133,166,203,21,196,200]},"announce":[],"urlList":[]}}